<svg width="1080" height="640" viewBox="0 0 1080 640" fill="none" xmlns="http://www.w3.org/2000/svg">
  <rect width="1080" height="640" rx="20" fill="#F3F7FF"/>
  <rect x="36" y="30" width="1008" height="56" rx="12" fill="#FFFFFF" stroke="#D1DDF5"/>
  <circle cx="70" cy="58" r="8" fill="#F87171"/>
  <circle cx="96" cy="58" r="8" fill="#FBBF24"/>
  <circle cx="122" cy="58" r="8" fill="#34D399"/>
  <rect x="168" y="47" width="594" height="22" rx="8" fill="#E5ECFA"/>

  <rect x="36" y="106" width="1008" height="218" rx="14" fill="url(#hero)"/>
  <rect x="72" y="146" width="480" height="26" rx="8" fill="#FFFFFF" fill-opacity="0.95"/>
  <rect x="72" y="186" width="420" height="16" rx="8" fill="#DBEAFE"/>
  <rect x="72" y="212" width="370" height="16" rx="8" fill="#DBEAFE"/>
  <rect x="72" y="248" width="160" height="44" rx="10" fill="#2563EB"/>

  <g>
    <rect x="36" y="346" width="320" height="248" rx="14" fill="#FFFFFF" stroke="#D1DDF5"/>
    <rect x="62" y="378" width="170" height="20" rx="8" fill="#1D4ED8" fill-opacity="0.2"/>
    <rect x="62" y="414" width="250" height="12" rx="6" fill="#E5ECFA"/>
    <rect x="62" y="436" width="226" height="12" rx="6" fill="#E5ECFA"/>
    <rect x="62" y="458" width="196" height="12" rx="6" fill="#E5ECFA"/>
  </g>

  <g>
    <rect x="380" y="346" width="320" height="248" rx="14" fill="#FFFFFF" stroke="#D1DDF5"/>
    <rect x="406" y="378" width="170" height="20" rx="8" fill="#0EA5E9" fill-opacity="0.2"/>
    <rect x="406" y="414" width="250" height="12" rx="6" fill="#E5ECFA"/>
    <rect x="406" y="436" width="226" height="12" rx="6" fill="#E5ECFA"/>
    <rect x="406" y="458" width="196" height="12" rx="6" fill="#E5ECFA"/>
  </g>

  <g>
    <rect x="724" y="346" width="320" height="248" rx="14" fill="#FFFFFF" stroke="#D1DDF5"/>
    <rect x="750" y="378" width="170" height="20" rx="8" fill="#10B981" fill-opacity="0.2"/>
    <rect x="750" y="414" width="250" height="12" rx="6" fill="#E5ECFA"/>
    <rect x="750" y="436" width="226" height="12" rx="6" fill="#E5ECFA"/>
    <rect x="750" y="458" width="196" height="12" rx="6" fill="#E5ECFA"/>
  </g>

  <defs>
    <linearGradient id="hero" x1="36" y1="106" x2="1044" y2="324" gradientUnits="userSpaceOnUse">
      <stop stop-color="#1E3A8A"/>
      <stop offset="1" stop-color="#2563EB"/>
    </linearGradient>
  </defs>
</svg>
